<?xml version="1.0" encoding="utf-8"?>
<!-- Generator: Adobe Illustrator 24.1.2, SVG Export Plug-In . SVG Version: 6.00 Build 0)  -->
<svg version="1.1" id="Слой_1" xmlns="http://www.w3.org/2000/svg" xmlns:xlink="http://www.w3.org/1999/xlink" x="0px" y="0px"
	 viewBox="0 0 620 399.7" style="enable-background:new 0 0 620 399.7;" xml:space="preserve">
<style type="text/css">
	.st0{display:none;}
	.st1{display:inline;fill:#9AD9FC;}
	.st2{fill:#0086DC;}
	.st3{fill:none;stroke:#B3EBFF;stroke-miterlimit:10;}
	.st4{fill:#37ABDD;}
	.st5{fill:#70BEF2;}
	.st6{fill:#233D68;}
	.st7{fill:#FFFFFF;}
	.st8{fill:#B3EBFF;}
	.st9{fill:#F7F1EB;}
	.st10{fill:#ED8B00;}
	.st11{fill:#FBB040;}
	.st12{fill:#363E44;}
	.st13{fill:#3B3348;}
	.st14{fill:#182E5A;}
	.st15{fill:none;stroke:#B3EBFF;stroke-width:0.5;stroke-miterlimit:10;}
	.st16{fill:#9AD9FC;}
	.st17{fill:#005EB8;}
	.st18{fill:#F4BDB3;}
	.st19{fill:#EFBC73;}
	.st20{clip-path:url(#SVGID_2_);fill:#363E44;}
	.st21{fill:#F9D6A7;}
</style>
<g class="st0">
	<path class="st1" d="M160,169.4h61.5v7.2H160V169.4z"/>
	<path class="st1" d="M160,183.9h61.5v7.3H160V183.9z"/>
	<path class="st1" d="M185.4,154.9h36.2v7.2h-36.2L185.4,154.9L185.4,154.9z"/>
	<path class="st1" d="M170.9,150.9h7.2v7.3h-7.2V150.9z"/>
</g>
<g>
	<ellipse class="st2" cx="381.4" cy="201.5" rx="177.9" ry="172.3"/>
	<g>
		<path class="st3" d="M534.7,105.9l-32.2,22.9c-4.1,2.8-9.7,1.9-12.5-2.2l0,0c-2.8-4.1-1.9-9.7,2.2-12.5l32.2-22.9"/>
		<path class="st3" d="M569.7,81.2c0.7,3,0.7,6.1,0.2,8.9c-1,5.8-4.3,11.4-9.4,15.1c-5.3,3.7-11.4,5-17.4,4s-11.4-4.3-15.1-9.4
			c-3.7-5.3-5-11.5-4-17.4c1-5.8,4.3-11.4,9.4-15.1c7.9-5.6,18-5.6,25.8-0.8l-17.6,12.4c-1.7,1.1-2,3.4-0.8,5l6.2,8.8
			c1.1,1.7,3.4,2,5,0.8L569.7,81.2z"/>
	</g>
	<polygon class="st4" points="357,331.2 288.1,331.2 301.4,270.4 343.8,270.4 	"/>
	<path class="st5" d="M385,343.3H260v-3c0-6.2,5-11.3,11.3-11.3h102.4c6.2,0,11.3,5,11.3,11.3L385,343.3L385,343.3z"/>
	<g>
		<path class="st6" d="M497.5,68.1v217.3c0,1.4-1.1,2.6-2.6,2.7h-0.1H150.3h-0.1c-1.4-0.1-2.5-1.2-2.5-2.7V68.1c0-0.1,0-0.2,0-0.3
			c0.1-1.2,1.1-2.2,2.3-2.3l0,0c0.1,0,0.2,0,0.2,0h0.1h344.5h0.1C496.3,65.5,497.5,66.7,497.5,68.1z"/>
		<path class="st6" d="M452.6,259H192.5c-18,0-32.5-14.6-32.5-32.5V109.7c0-18,14.6-32.5,32.5-32.5h260.1c18,0,32.5,14.6,32.5,32.5
			v116.9C485.1,244.5,470.6,259,452.6,259z"/>
	</g>
	<path class="st7" d="M497.4,68.1V259c-116,0-233.8,0-349.8,0V68.1c0-0.2,0-0.3,0-0.5c0.2-1.1,1.1-2,2.3-2.2l0,0c0.1,0,0.2,0,0.2,0
		h0.1h344.5h0.1C496.3,65.5,497.4,66.7,497.4,68.1z"/>
	<path class="st6" d="M147.7,259c0-63.8,0-127.6,0-191.4c0.2-1.1,1.1-2,2.3-2.2l0,0c0.1,0,0.2,0,0.2,0h0.1h344.5h0.1
		c1.4,0.1,2.6,1.2,2.6,2.7c0,63.7,0,127.3,0,191c-76,4.5-151.9,6.1-227.8,4.7C229,263,188.3,261.5,147.7,259z"/>
	<rect x="160" y="77.2" class="st7" width="325.1" height="180.8"/>
	<circle class="st4" cx="322.6" cy="274" r="7.9"/>
	<rect id="floor_1_" x="110.6" y="339.5" class="st6" width="433.9" height="7.2"/>
	<g>
		<rect x="334.8" y="104" class="st8" width="71.4" height="52.9"/>
		<g>
			<path class="st9" d="M391.1,121.3c-0.1,0-0.2,0-0.3-0.1l-3.4-3.4l-2.8,2.8c-0.1,0.1-0.4,0.1-0.5,0l-2.9-2.9l-3.4,3.4
				c-0.1,0.1-0.3,0.1-0.4,0.1c-0.1-0.1-0.2-0.2-0.2-0.3v-16c0-0.2,0.2-0.4,0.4-0.4s0.4,0.2,0.4,0.4V120l3-3c0.1-0.1,0.4-0.1,0.5,0
				l2.9,2.9l2.8-2.8c0.1-0.1,0.4-0.1,0.5,0l3,3v-15.2c0-0.2,0.2-0.4,0.4-0.4c0.2,0,0.4,0.2,0.4,0.4V121c0,0.2-0.1,0.3-0.2,0.3
				C391.2,121.3,391.1,121.3,391.1,121.3z"/>
		</g>
		<g>
			<g>
				<rect x="235.6" y="97.8" class="st8" width="79.8" height="59.2"/>
				<g>
					<rect x="283.7" y="46.4" class="st5" width="56.3" height="38.5"/>
					<path class="st6" d="M297.6,82.3c-0.2,0-0.4-0.2-0.4-0.4V49.4c0-0.2,0.2-0.4,0.4-0.4s0.4,0.2,0.4,0.4v32.5
						C298,82.1,297.8,82.3,297.6,82.3z"/>
					<path class="st6" d="M322.8,82.3c-0.2,0-0.4-0.2-0.4-0.4V64.5c0-0.2,0.2-0.4,0.4-0.4s0.4,0.2,0.4,0.4v17.4
						C323.1,82.1,323,82.3,322.8,82.3z"/>
					<g>
						<path class="st6" d="M328.1,63.1c-0.1,0-0.2,0-0.3-0.1l-2.6-3.2l-2.1,2.6c-0.1,0.1-0.2,0.1-0.3,0.1l0,0
							c-0.1,0-0.2-0.1-0.3-0.1l-2.2-2.7l-2.6,3.2c-0.1,0.1-0.3,0.2-0.4,0.1c-0.1-0.1-0.2-0.2-0.2-0.4V47.1c0-0.2,0.2-0.4,0.4-0.4
							c0.2,0,0.4,0.2,0.4,0.4v14.4l2.2-2.7c0.1-0.2,0.4-0.2,0.6,0l2.2,2.7l2.1-2.6c0.1-0.1,0.2-0.1,0.3-0.1l0,0
							c0.1,0,0.2,0.1,0.3,0.1l2.2,2.7V47.1c0-0.2,0.2-0.4,0.4-0.4s0.4,0.2,0.4,0.4v15.6c0,0.2-0.1,0.3-0.2,0.4
							C328.2,63.1,328.1,63.1,328.1,63.1z"/>
					</g>
				</g>
				<rect x="232.3" y="54.6" class="st8" width="44.3" height="30.3"/>
				<rect x="348.8" y="46.7" class="st8" width="51.6" height="38.2"/>
				<g>
					<path class="st2" d="M255.3,153.9c-0.2,0-0.4-0.2-0.4-0.4v-52.3c0-0.2,0.2-0.4,0.4-0.4s0.4,0.2,0.4,0.4v52.3
						C255.7,153.7,255.5,153.9,255.3,153.9z"/>
					<path class="st2" d="M290.9,153.9c-0.2,0-0.4-0.2-0.4-0.4v-34.8c0-0.2,0.2-0.4,0.4-0.4c0.2,0,0.4,0.2,0.4,0.4v34.8
						C291.3,153.7,291.1,153.9,290.9,153.9z"/>
					<g>
						<path class="st2" d="M298.5,117c-0.1,0-0.2,0-0.3-0.1l-3.8-3.8l-3.2,3.2c-0.1,0.1-0.4,0.1-0.5,0l-3.3-3.3l-3.8,3.8
							c-0.1,0.1-0.3,0.1-0.4,0.1c-0.1-0.1-0.2-0.2-0.2-0.3v-18c0-0.2,0.2-0.4,0.4-0.4c0.2,0,0.4,0.2,0.4,0.4v17l3.4-3.4
							c0.1-0.1,0.4-0.1,0.5,0l3.3,3.3l3.2-3.2c0.1-0.1,0.2-0.1,0.3-0.1l0,0c0.1,0,0.2,0,0.3,0.1l3.5,3.5V98.6c0-0.2,0.2-0.4,0.4-0.4
							c0.2,0,0.4,0.2,0.4,0.4v18.1c0,0.2-0.1,0.3-0.2,0.3C298.6,117,298.5,117,298.5,117z"/>
					</g>
					<path class="st2" d="M243.2,82.9c-0.2,0-0.4-0.2-0.4-0.4V57c0-0.2,0.2-0.4,0.4-0.4s0.4,0.2,0.4,0.4v25.6
						C243.6,82.8,243.4,82.9,243.2,82.9z"/>
					<path class="st2" d="M263,82.9c-0.2,0-0.4-0.2-0.4-0.4V68.9c0-0.2,0.2-0.4,0.4-0.4s0.4,0.2,0.4,0.4v13.7
						C263.4,82.8,263.2,82.9,263,82.9z"/>
					<g>
						<path class="st2" d="M267.2,67.8c-0.1,0-0.2,0-0.3-0.1l-2-2.4l-1.6,2c-0.1,0.2-0.4,0.2-0.6,0l-1.7-2.1l-2,2.4
							c-0.1,0.1-0.3,0.2-0.4,0.1c-0.1-0.1-0.2-0.2-0.2-0.4V55.2c0-0.2,0.2-0.4,0.4-0.4c0.2,0,0.4,0.2,0.4,0.4v11.1l1.6-1.9
							c0.1-0.2,0.4-0.2,0.6,0l1.7,2.1l1.6-2c0.1-0.2,0.4-0.2,0.6,0l1.6,2V55.2c0-0.2,0.2-0.4,0.4-0.4s0.4,0.2,0.4,0.4v12.3
							c0,0.2-0.1,0.3-0.2,0.4C267.3,67.8,267.2,67.8,267.2,67.8z"/>
					</g>
					<path class="st2" d="M361.6,83.1c-0.2,0-0.4-0.2-0.4-0.4V49c0-0.2,0.2-0.4,0.4-0.4c0.2,0,0.4,0.2,0.4,0.4v33.8
						C362,83,361.8,83.1,361.6,83.1z"/>
					<path class="st2" d="M384.6,83.1c-0.2,0-0.4-0.2-0.4-0.4V60.3c0-0.2,0.2-0.4,0.4-0.4c0.2,0,0.4,0.2,0.4,0.4v22.5
						C385,83,384.8,83.1,384.6,83.1z"/>
					<g>
						<path class="st2" d="M389.5,59.3c-0.1,0-0.2,0-0.3-0.1l-2.4-2.4l-2,2c-0.1,0.1-0.4,0.1-0.5,0l-2-2l-2.4,2.4
							c-0.1,0.1-0.3,0.1-0.4,0.1c-0.1-0.1-0.2-0.2-0.2-0.3V47.3c0-0.2,0.2-0.4,0.4-0.4s0.4,0.2,0.4,0.4V58l2-2
							c0.1-0.1,0.4-0.1,0.5,0l2,2l2-2c0.1-0.1,0.4-0.1,0.5,0l2,2V47.3c0-0.2,0.2-0.4,0.4-0.4s0.4,0.2,0.4,0.4V59
							c0,0.2-0.1,0.3-0.2,0.3S389.6,59.3,389.5,59.3z"/>
					</g>
				</g>
			</g>
			<g>
				<path class="st2" d="M412.1,157.8H227.2c-0.2,0-0.4-0.2-0.4-0.4s0.2-0.4,0.4-0.4h184.9c0.2,0,0.4,0.2,0.4,0.4
					S412.3,157.8,412.1,157.8z"/>
				<path class="st2" d="M412.3,161.3H227.4c-0.2,0-0.4-0.2-0.4-0.4s0.2-0.4,0.4-0.4h184.9c0.2,0,0.4,0.2,0.4,0.4
					C412.7,161.2,412.5,161.3,412.3,161.3z"/>
				<path class="st2" d="M412.6,85.7L412.6,85.7l-185.2-0.1c-0.2,0-0.4-0.2-0.4-0.4c0-0.2,0.2-0.4,0.4-0.4l0,0l185.2,0.1
					c0.2,0,0.4,0.2,0.4,0.4C413,85.5,412.8,85.7,412.6,85.7z"/>
				<path class="st2" d="M227.3,89.5c-0.2,0-0.4-0.2-0.4-0.4c0-0.2,0.2-0.4,0.4-0.4l185.3-0.1c0.2,0,0.4,0.2,0.4,0.4
					c0,0.2-0.2,0.4-0.4,0.4L227.3,89.5z"/>
				<path class="st2" d="M227.2,202.5h-4.1c-0.2,0-0.4-0.2-0.4-0.4V41.5c0-0.2,0.2-0.4,0.4-0.4h4.1c0.2,0,0.4,0.2,0.4,0.4v160.7
					C227.6,202.4,227.4,202.5,227.2,202.5z M223.5,201.8h3.3V41.9h-3.3V201.8z"/>
				<path class="st2" d="M416.7,202.8h-4.1c-0.2,0-0.4-0.2-0.4-0.4V41.8c0-0.2,0.2-0.4,0.4-0.4h4.1c0.2,0,0.4,0.2,0.4,0.4v160.6
					C417.1,202.6,416.9,202.8,416.7,202.8z M413,202h3.3V42.2H413V202z"/>
			</g>
		</g>
	</g>
	<g>
		<g>
			<g>
				<rect x="342.7" y="157.7" class="st5" width="77.9" height="57.8"/>
				<path class="st6" d="M362,212.5c-0.2,0-0.4-0.2-0.4-0.4v-51c0-0.2,0.2-0.4,0.4-0.4s0.4,0.2,0.4,0.4v51
					C362.3,212.3,362.2,212.5,362,212.5z"/>
				<path class="st6" d="M396.7,212.5c-0.2,0-0.4-0.2-0.4-0.4v-34c0-0.2,0.2-0.4,0.4-0.4s0.4,0.2,0.4,0.4v34
					C397.1,212.3,397,212.5,396.7,212.5z"/>
				<g>
					<path class="st7" d="M404.1,176.4c-0.1,0-0.2,0-0.3-0.1l-3.7-3.7l-3.1,3.1c-0.1,0.1-0.4,0.1-0.5,0l-3.2-3.2l-3.7,3.7
						c-0.1,0.1-0.3,0.1-0.4,0.1c-0.1-0.1-0.2-0.2-0.2-0.3v-17.6c0-0.2,0.2-0.4,0.4-0.4s0.4,0.2,0.4,0.4V175l3.3-3.3
						c0.1-0.1,0.4-0.1,0.5,0l3.2,3.2l3.1-3.1c0.1-0.1,0.4-0.1,0.5,0l3.4,3.4v-16.8c0-0.2,0.2-0.4,0.4-0.4s0.4,0.2,0.4,0.4V176
						c0,0.2-0.1,0.3-0.2,0.3C404.2,176.4,404.2,176.4,404.1,176.4z"/>
				</g>
			</g>
			<g>
				<rect x="439.6" y="163.8" class="st4" width="69.6" height="51.6"/>
				<path class="st6" d="M456.8,212.8c-0.2,0-0.4-0.2-0.4-0.4v-45.6c0-0.2,0.2-0.4,0.4-0.4s0.4,0.2,0.4,0.4v45.6
					C457.2,212.6,457,212.8,456.8,212.8z"/>
				<path class="st6" d="M487.9,212.8c-0.2,0-0.4-0.2-0.4-0.4V182c0-0.2,0.2-0.4,0.4-0.4s0.4,0.2,0.4,0.4v30.4
					C488.3,212.6,488.1,212.8,487.9,212.8z"/>
				<g>
					<path class="st7" d="M494.5,180.6c-0.1,0-0.2,0-0.3-0.1l-3.3-3.3l-2.7,2.7c-0.1,0.1-0.4,0.1-0.5,0l-2.8-2.8l-3.3,3.3
						c-0.1,0.1-0.3,0.1-0.4,0.1c-0.1-0.1-0.2-0.2-0.2-0.3v-15.6c0-0.2,0.2-0.4,0.4-0.4s0.4,0.2,0.4,0.4v14.7l2.9-2.9
						c0.1-0.1,0.2-0.1,0.3-0.1l0,0c0.1,0,0.2,0,0.3,0.1l2.8,2.8l2.7-2.7c0.1-0.1,0.4-0.1,0.5,0l2.9,2.9v-14.9c0-0.2,0.2-0.4,0.4-0.4
						s0.4,0.2,0.4,0.4v15.8c0,0.2-0.1,0.3-0.2,0.3C494.6,180.6,494.5,180.6,494.5,180.6z"/>
				</g>
			</g>
			<g>
				<rect x="389.7" y="107.5" class="st5" width="55" height="37.6"/>
				<path class="st6" d="M403.3,142.6c-0.2,0-0.4-0.2-0.4-0.4v-31.8c0-0.2,0.2-0.4,0.4-0.4s0.4,0.2,0.4,0.4v31.8
					C403.6,142.4,403.5,142.6,403.3,142.6z"/>
				<path class="st6" d="M427.8,142.6c-0.2,0-0.4-0.2-0.4-0.4v-17c0-0.2,0.2-0.4,0.4-0.4s0.4,0.2,0.4,0.4v17
					C428.2,142.4,428,142.6,427.8,142.6z"/>
				<g>
					<path class="st7" d="M433,123.8c-0.1,0-0.2,0-0.3-0.1l-2.5-3.1l-2.1,2.5c-0.1,0.2-0.4,0.2-0.6,0l-2.2-2.6l-2.5,3.1
						c-0.1,0.1-0.3,0.2-0.4,0.1s-0.2-0.2-0.2-0.4v-15.1c0-0.2,0.2-0.4,0.4-0.4s0.4,0.2,0.4,0.4v14l2.1-2.6c0.1-0.2,0.4-0.2,0.6,0
						l2.2,2.6l2.1-2.5c0.1-0.2,0.4-0.2,0.6,0l2.2,2.6v-14.2c0-0.2,0.2-0.4,0.4-0.4s0.4,0.2,0.4,0.4v15.3c0,0.2-0.1,0.3-0.2,0.4
						C433.1,123.8,433.1,123.8,433,123.8z"/>
				</g>
			</g>
			<g>
				<rect x="339.5" y="115.6" class="st5" width="43.2" height="29.5"/>
				<path class="st7" d="M350.2,143.2c-0.2,0-0.4-0.2-0.4-0.4v-25c0-0.2,0.2-0.4,0.4-0.4s0.4,0.2,0.4,0.4v25
					C350.5,143,350.4,143.2,350.2,143.2z"/>
				<path class="st7" d="M369.5,143.2c-0.2,0-0.4-0.2-0.4-0.4v-13.4c0-0.2,0.2-0.4,0.4-0.4s0.4,0.2,0.4,0.4v13.4
					C369.9,143,369.7,143.2,369.5,143.2z"/>
				<g>
					<path class="st7" d="M373.6,128.4c-0.1,0-0.2,0-0.3-0.1l-1.9-2.4l-1.6,1.9c-0.1,0.2-0.4,0.2-0.6,0l-1.6-2l-1.9,2.3
						c-0.1,0.1-0.3,0.2-0.4,0.1c-0.1-0.1-0.2-0.2-0.2-0.4v-11.9c0-0.2,0.2-0.4,0.4-0.4s0.4,0.2,0.4,0.4v10.8l1.5-1.9
						c0.1-0.2,0.4-0.2,0.6,0l1.6,2l1.6-1.9c0.1-0.2,0.4-0.2,0.6,0l1.6,1.9v-10.9c0-0.2,0.2-0.4,0.4-0.4s0.4,0.2,0.4,0.4v12
						c0,0.2-0.1,0.3-0.2,0.4C373.7,128.4,373.6,128.4,373.6,128.4z"/>
				</g>
			</g>
			<g>
				<rect x="453.3" y="107.9" class="st5" width="50.3" height="37.3"/>
				<path class="st6" d="M465.7,143.4c-0.2,0-0.4-0.2-0.4-0.4v-33c0-0.2,0.2-0.4,0.4-0.4s0.4,0.2,0.4,0.4v33
					C466.1,143.2,465.9,143.4,465.7,143.4z"/>
				<path class="st6" d="M488.2,143.4c-0.2,0-0.4-0.2-0.4-0.4v-21.9c0-0.2,0.2-0.4,0.4-0.4s0.4,0.2,0.4,0.4V143
					C488.6,143.2,488.4,143.4,488.2,143.4z"/>
				<g>
					<path class="st7" d="M493,120.1c-0.1,0-0.2,0-0.3-0.1l-2.3-2.3l-1.9,1.9c-0.1,0.1-0.4,0.1-0.5,0l-2-2l-2.3,2.3
						c-0.1,0.1-0.3,0.1-0.4,0.1c-0.1-0.1-0.2-0.2-0.2-0.3v-11.3c0-0.2,0.2-0.4,0.4-0.4s0.4,0.2,0.4,0.4v10.4l1.9-1.9
						c0.1-0.1,0.4-0.1,0.5,0l2,2l1.9-1.9c0.1-0.1,0.4-0.1,0.5,0l1.9,2v-10.6c0-0.2,0.2-0.4,0.4-0.4s0.4,0.2,0.4,0.4v11.4
						c0,0.2-0.1,0.3-0.2,0.3C493.1,120.1,493,120.1,493,120.1z"/>
				</g>
			</g>
		</g>
		<g>
			<path class="st6" d="M515,216.2H334.5c-0.2,0-0.4-0.2-0.4-0.4s0.2-0.4,0.4-0.4H515c0.2,0,0.4,0.2,0.4,0.4
				C515.4,216.1,515.2,216.2,515,216.2z"/>
			<path class="st6" d="M515.2,219.7H334.7c-0.2,0-0.4-0.2-0.4-0.4s0.2-0.4,0.4-0.4h180.5c0.2,0,0.4,0.2,0.4,0.4
				S515.4,219.7,515.2,219.7z"/>
			<path class="st6" d="M515.5,145.9L515.5,145.9l-180.7-0.1c-0.2,0-0.4-0.2-0.4-0.4s0.2-0.4,0.4-0.4l0,0l180.7,0.1
				c0.2,0,0.4,0.2,0.4,0.4C515.8,145.7,515.7,145.9,515.5,145.9z"/>
			<path class="st6" d="M334.6,149.6c-0.2,0-0.4-0.2-0.4-0.4s0.2-0.4,0.4-0.4l180.8-0.1c0.2,0,0.4,0.2,0.4,0.4s-0.2,0.4-0.4,0.4
				L334.6,149.6z"/>
			<path class="st6" d="M334.5,259.9h-4c-0.2,0-0.4-0.2-0.4-0.4V102.8c0-0.2,0.2-0.4,0.4-0.4h4c0.2,0,0.4,0.2,0.4,0.4v156.8
				C334.9,259.7,334.7,259.9,334.5,259.9z M330.9,259.2h3.3v-156h-3.3V259.2z"/>
			<path class="st6" d="M519.5,260.2h-4c-0.2,0-0.4-0.2-0.4-0.4V103c0-0.2,0.2-0.4,0.4-0.4h4c0.2,0,0.4,0.2,0.4,0.4v156.8
				C519.9,260,519.7,260.2,519.5,260.2z M515.9,259.4h3.3v-156h-3.3V259.4z"/>
		</g>
	</g>
	<g>
		<g>
			<g>
				<path class="st9" d="M528.8,263.3c-0.2,0-0.3-0.1-0.4-0.3l-0.6-2.5c-1.2,0.1-2.4,0-3.6-0.1l-0.7,2.5c0,0.1-0.1,0.2-0.2,0.2
					s-0.2,0.1-0.3,0l-9.3-2.7c-0.2-0.1-0.3-0.3-0.3-0.5l0.7-2.4c-1.1-0.6-2.1-1.2-3.1-1.9l-1.8,1.8c-0.1,0.1-0.4,0.1-0.5,0l-6.7-7
					c-0.1-0.1-0.1-0.4,0-0.5l1.8-1.8c-0.7-1-1.2-2.1-1.8-3.2l-2.5,0.6c-0.1,0-0.2,0-0.3,0c-0.1-0.1-0.1-0.1-0.2-0.2l-2.3-9.4
					c0-0.2,0.1-0.4,0.3-0.5l2.5-0.6c-0.1-1.2,0-2.4,0.1-3.6l-2.5-0.7c-0.2-0.1-0.3-0.3-0.3-0.5l2.7-9.3c0-0.1,0.1-0.2,0.2-0.2
					s0.2-0.1,0.3,0l2.4,0.7c0.6-1.1,1.2-2.1,1.9-3.1l-1.8-1.8c-0.1-0.1-0.1-0.2-0.1-0.3s0-0.2,0.1-0.3l7-6.7c0.1-0.1,0.4-0.1,0.5,0
					l1.8,1.8c1-0.7,2.1-1.2,3.2-1.8l-0.6-2.5c0-0.1,0-0.2,0-0.3c0.1-0.1,0.1-0.1,0.2-0.2l9.4-2.3c0.1,0,0.2,0,0.3,0
					c0.1,0.1,0.1,0.1,0.2,0.2l0.6,2.5c1.2-0.1,2.4,0,3.6,0.1l0.7-2.5c0-0.1,0.1-0.2,0.2-0.2s0.2-0.1,0.3,0l9.3,2.7
					c0.2,0.1,0.3,0.3,0.3,0.5l-0.7,2.4c1.1,0.6,2.1,1.2,3.1,1.9l1.8-1.8c0.1-0.1,0.2-0.1,0.3-0.1c0.1,0,0.2,0,0.3,0.1l6.7,7
					c0.1,0.1,0.1,0.2,0.1,0.3s0,0.2-0.1,0.3l-1.8,1.8c0.7,1,1.2,2.1,1.8,3.2l2.5-0.6c0.2,0,0.4,0.1,0.5,0.3l2.3,9.4
					c0,0.1,0,0.2,0,0.3c-0.1,0.1-0.1,0.1-0.2,0.2l-2.5,0.6c0.1,1.2,0,2.4-0.1,3.6l2.5,0.7c0.2,0.1,0.3,0.3,0.3,0.5l-2.7,9.3
					c0,0.1-0.1,0.2-0.2,0.2s-0.2,0.1-0.3,0l-2.4-0.7c-0.6,1.1-1.2,2.1-1.9,3.1l1.8,1.8c0.1,0.1,0.1,0.4,0,0.5l-7,6.7
					c-0.1,0.1-0.2,0.1-0.3,0.1c-0.1,0-0.2,0-0.3-0.1l-1.8-1.8c-1,0.7-2.1,1.2-3.2,1.8l0.6,2.5c0,0.1,0,0.2,0,0.3
					c-0.1,0.1-0.1,0.1-0.2,0.2L528.8,263.3L528.8,263.3z M528.1,259.7c0.2,0,0.3,0.1,0.4,0.3l0.6,2.4l8.7-2.1l-0.6-2.4
					c0-0.2,0-0.4,0.2-0.4c1.3-0.6,2.5-1.2,3.6-2c0.1-0.1,0.3-0.1,0.5,0.1l1.7,1.8l6.4-6.2l-1.7-1.8c-0.1-0.1-0.1-0.3,0-0.5
					c0.8-1.1,1.5-2.3,2.1-3.5c0.1-0.2,0.3-0.2,0.4-0.2l2.4,0.7l2.5-8.6l-2.4-0.7c-0.2,0-0.3-0.2-0.3-0.4c0.1-1.4,0.2-2.8,0.1-4.1
					c0-0.2,0.1-0.3,0.3-0.4l2.4-0.6l-2.1-8.7l-2.4,0.6c-0.2,0-0.4,0-0.4-0.2c-0.6-1.3-1.2-2.5-2-3.6c-0.1-0.1-0.1-0.3,0.1-0.5
					l1.8-1.7l-6.2-6.4l-1.8,1.7c-0.1,0.1-0.3,0.1-0.5,0c-1.1-0.8-2.3-1.5-3.5-2.1c-0.2-0.1-0.2-0.3-0.2-0.4l0.7-2.4l-8.6-2.5
					l-0.7,2.4c0,0.2-0.2,0.3-0.4,0.3c-1.4-0.1-2.8-0.2-4.1-0.1c-0.2,0-0.3-0.1-0.4-0.3l-0.6-2.4l-8.7,2.1l0.6,2.4
					c0,0.2,0,0.4-0.2,0.4c-1.3,0.6-2.5,1.2-3.6,2c-0.1,0.1-0.3,0.1-0.5-0.1l-1.7-1.8l-6.4,6.2l1.7,1.8c0.1,0.1,0.1,0.3,0,0.5
					c-0.8,1.1-1.5,2.3-2.1,3.5c-0.1,0.2-0.3,0.2-0.4,0.2l-2.4-0.7l-2.5,8.6l2.4,0.7c0.2,0,0.3,0.2,0.3,0.4c-0.1,1.4-0.2,2.8-0.1,4.1
					c0,0.2-0.1,0.3-0.3,0.4l-2.4,0.6l2.1,8.7l2.4-0.6c0.2,0,0.4,0,0.4,0.2c0.6,1.3,1.2,2.5,2,3.6c0.1,0.1,0.1,0.3-0.1,0.5l-1.8,1.7
					l6.2,6.4l1.8-1.7c0.1-0.1,0.3-0.1,0.5,0c1.1,0.8,2.3,1.5,3.5,2.1c0.2,0.1,0.2,0.3,0.2,0.4l-0.7,2.4l8.6,2.5l0.7-2.4
					c0-0.2,0.2-0.3,0.4-0.3C525.3,259.8,526.7,259.8,528.1,259.7L528.1,259.7z M526.5,250.9c-0.1,0-0.2,0-0.4,0
					c-4.9-0.1-9.3-2.1-12.6-5.8c-6.1-6.8-5.9-17.2,0.5-23.8c3.4-3.5,7.9-5.3,12.8-5.3c4.9,0.1,9.3,2.1,12.6,5.8
					c6.1,6.8,5.9,17.2-0.5,23.8C535.6,249.1,531.2,250.9,526.5,250.9z M526.5,216.9c-4.5,0-8.7,1.8-11.9,5
					c-6.1,6.3-6.3,16.3-0.4,22.8c3.1,3.5,7.4,5.4,12,5.5s9-1.7,12.3-5c6.1-6.3,6.3-16.3,0.4-22.8c-3.1-3.5-7.4-5.4-12-5.5
					C526.7,216.9,526.6,216.9,526.5,216.9z"/>
			</g>
		</g>
		<g>
			<rect x="443.8" y="270.8" class="st10" width="93.1" height="69"/>
			<path class="st7" d="M466.9,336.1c-0.2,0-0.4-0.2-0.4-0.4v-61c0-0.2,0.2-0.4,0.4-0.4s0.4,0.2,0.4,0.4v61
				C467.2,336,467.1,336.1,466.9,336.1z"/>
			<path class="st7" d="M508.4,336.1c-0.2,0-0.4-0.2-0.4-0.4v-40.6c0-0.2,0.2-0.4,0.4-0.4s0.4,0.2,0.4,0.4v40.6
				C508.8,336,508.6,336.1,508.4,336.1z"/>
			<g>
				<path class="st9" d="M517.2,293.1c-0.1,0-0.2,0-0.3-0.1l-4.5-4.5l-3.7,3.7c-0.1,0.1-0.4,0.1-0.5,0l-3.9-3.9l-4.5,4.5
					c-0.1,0.1-0.3,0.1-0.4,0.1c-0.1-0.1-0.2-0.2-0.2-0.3v-20.9c0-0.2,0.2-0.4,0.4-0.4s0.4,0.2,0.4,0.4v20l4.1-4.1
					c0.1-0.1,0.4-0.1,0.5,0l3.9,3.9l3.7-3.7c0.1-0.1,0.2-0.1,0.3-0.1l0,0c0.1,0,0.2,0,0.3,0.1l4.1,4.1v-20.2c0-0.2,0.2-0.4,0.4-0.4
					s0.4,0.2,0.4,0.4v21.1c0,0.2-0.1,0.3-0.2,0.3C517.3,293.1,517.3,293.1,517.2,293.1z"/>
			</g>
		</g>
		<g>
			<rect x="469.2" y="226.1" class="st11" width="60.1" height="44.6"/>
			<path class="st7" d="M484,268.5c-0.2,0-0.4-0.2-0.4-0.4v-39.4c0-0.2,0.2-0.4,0.4-0.4s0.4,0.2,0.4,0.4v39.4
				C484.4,268.4,484.2,268.5,484,268.5z"/>
			<path class="st7" d="M510.9,268.5c-0.2,0-0.4-0.2-0.4-0.4v-26.2c0-0.2,0.2-0.4,0.4-0.4c0.2,0,0.4,0.2,0.4,0.4v26.2
				C511.3,268.4,511.1,268.5,510.9,268.5z"/>
			<g>
				<path class="st9" d="M516.6,240.7c-0.1,0-0.2,0-0.3-0.1l-2.8-2.8l-2.3,2.3c-0.1,0.1-0.4,0.1-0.5,0l-2.4-2.4l-2.8,2.8
					c-0.1,0.1-0.3,0.1-0.4,0.1c-0.1-0.1-0.2-0.2-0.2-0.3v-13.5c0-0.2,0.2-0.4,0.4-0.4s0.4,0.2,0.4,0.4v12.6l2.4-2.4
					c0.1-0.1,0.4-0.1,0.5,0l2.4,2.4l2.3-2.3c0.1-0.1,0.4-0.1,0.5,0l2.5,2.5v-12.7c0-0.2,0.2-0.4,0.4-0.4s0.4,0.2,0.4,0.4v13.6
					c0,0.2-0.1,0.3-0.2,0.3C516.7,240.7,516.6,240.7,516.6,240.7z"/>
			</g>
		</g>
	</g>
	<rect x="138.2" y="290.5" class="st12" width="68" height="11.5"/>
	<path class="st9" d="M184.8,300.6h-42.4c-0.2,0-0.4-0.2-0.4-0.4c0-0.2,0.2-0.4,0.4-0.4h42.4c0.2,0,0.4,0.2,0.4,0.4
		C185.2,300.5,185,300.6,184.8,300.6z"/>
	<g>
		<rect x="240" y="185.8" class="st7" width="72.8" height="44.4"/>
		<rect x="240" y="185.8" class="st6" width="72.8" height="9"/>
		<path class="st6" d="M240,230.6v-45h73.2v45H240z M312.7,230.1v-35.3h-72.2v35.3H312.7z M312.7,194.3v-8.1h-72.2v8.1H312.7
			L312.7,194.3z"/>
		<path class="st6" d="M240,186.2v44.3h73v-44.3H240z M312.9,186.5v8.4h-72.6v-8.4H312.9z M240.2,230.2V195h72.6v35.3L240.2,230.2
			L240.2,230.2z"/>
		<g>
			<g>
				<g>
					<path class="st5" d="M253.9,223.9c0,0-0.4-4.1,0.6-3.3c2.6,1.9,5.4-0.1,5.7-0.8c1.8-4.4,1-16.9,5.7-16.9c4.8,0,2.6,11.4,5.2,14
						c2.6,2.5,6.1-9.1,10-9.1s4.8,8.8,8,8.8s4.4-4.1,7.7-4.8v12.1H253.9z"/>
				</g>
			</g>
			<g>
				<g>
					<path class="st13" d="M253,201.6c-0.1,0-0.1-0.1-0.2-0.1c-0.1-0.1-0.1-0.3,0-0.5l1.1-1.5c0.1-0.1,0.1-0.1,0.2-0.1l0,0
						c0.1,0,0.2,0.1,0.2,0.1l1,1.4c0.1,0.1,0.1,0.3,0,0.5c-0.1,0.1-0.3,0.1-0.4-0.1l-0.8-1l-0.9,1.2
						C253.2,201.6,253.1,201.6,253,201.6z"/>
				</g>
			</g>
			<g>
				<g>
					<path class="st13" d="M299.7,222.8c0-0.1,0.1-0.2,0.1-0.2c0.1-0.1,0.3-0.2,0.4-0.1l1.2,1.4c0.1,0.1,0.1,0.2,0.1,0.3l0,0
						c0,0.1-0.1,0.2-0.1,0.3l-1.1,1.3c-0.1,0.1-0.3,0.1-0.4-0.1c-0.1-0.1-0.1-0.3,0-0.5l0.9-1l-1-1.1
						C299.8,223,299.7,222.9,299.7,222.8z"/>
				</g>
			</g>
			<g>
				<g>
					<path class="st14" d="M266,224c-0.1,0-0.1-0.1-0.1-0.2v-24c0-0.1,0.1-0.2,0.1-0.2c0.1,0,0.1,0.1,0.1,0.2v24
						C266.1,223.9,266.1,224,266,224z"/>
				</g>
			</g>
			<g>
				<g>
					<path class="st14" d="M280.9,224c-0.1,0-0.1-0.1-0.1-0.2v-24c0-0.1,0.1-0.2,0.1-0.2s0.1,0.1,0.1,0.2v24
						C281.1,223.9,281,224,280.9,224z"/>
				</g>
			</g>
			<g>
				<g>
					<path class="st14" d="M296.9,224c-0.1,0-0.1-0.1-0.1-0.2v-24c0-0.1,0.1-0.2,0.1-0.2c0.1,0,0.1,0.1,0.1,0.2v24
						C297,223.9,297,224,296.9,224z"/>
				</g>
			</g>
			<g>
				<g>
					<path class="st14" d="M254.1,227.1c-0.2,0-0.3-0.2-0.3-0.3v-26c0-0.2,0.1-0.3,0.3-0.3c0.2,0,0.3,0.2,0.3,0.3v26
						C254.4,226.9,254.2,227.1,254.1,227.1z"/>
				</g>
			</g>
			<g>
				<g>
					<path class="st14" d="M300.7,224.5h-48.8c-0.2,0-0.3-0.2-0.3-0.3s0.1-0.3,0.3-0.3h48.8c0.2,0,0.3,0.2,0.3,0.3
						C301.1,224.3,301,224.5,300.7,224.5z"/>
				</g>
			</g>
			<g>
				<g>
					<g>
						<path class="st7" d="M266.6,202.2c0-0.3-0.2-0.6-0.5-0.6s-0.5,0.3-0.5,0.6s0.2,0.6,0.5,0.6
							C266.3,202.8,266.6,202.6,266.6,202.2z"/>
					</g>
				</g>
				<g>
					<g>
						<path class="st13" d="M266,203.1c-0.3,0-0.6-0.3-0.6-0.8s0.3-0.8,0.6-0.8c0.3,0,0.6,0.3,0.6,0.8
							C266.7,202.7,266.4,203.1,266,203.1z M266,201.7c-0.2,0-0.3,0.2-0.3,0.5c0,0.2,0.2,0.5,0.3,0.5c0.2,0,0.3-0.2,0.3-0.5
							C266.4,202,266.2,201.7,266,201.7z"/>
					</g>
				</g>
			</g>
			<g>
				<g>
					<g>
						<path class="st7" d="M281.4,207.6c0-0.3-0.2-0.6-0.5-0.6s-0.5,0.3-0.5,0.6s0.2,0.6,0.5,0.6S281.4,207.9,281.4,207.6z"/>
					</g>
				</g>
				<g>
					<g>
						<path class="st13" d="M280.9,208.4c-0.3,0-0.6-0.3-0.6-0.8s0.3-0.8,0.6-0.8c0.3,0,0.6,0.3,0.6,0.8
							C281.6,208,281.3,208.4,280.9,208.4z M280.9,207.2c-0.2,0-0.3,0.2-0.3,0.5c0,0.2,0.2,0.5,0.3,0.5c0.2,0,0.3-0.2,0.3-0.5
							C281.3,207.3,281.1,207.2,280.9,207.2z"/>
					</g>
				</g>
			</g>
			<g>
				<g>
					<g>
						<ellipse class="st7" cx="296.8" cy="211.8" rx="0.5" ry="0.6"/>
					</g>
				</g>
				<g>
					<g>
						<path class="st13" d="M296.8,212.6c-0.3,0-0.6-0.3-0.6-0.8s0.3-0.8,0.6-0.8s0.6,0.3,0.6,0.8S297.1,212.6,296.8,212.6z
							 M296.8,211.3c-0.2,0-0.3,0.2-0.3,0.5c0,0.2,0.2,0.5,0.3,0.5c0.2,0,0.3-0.2,0.3-0.5S296.9,211.3,296.8,211.3z"/>
					</g>
				</g>
			</g>
		</g>
	</g>
	<g>
		<path class="st10" d="M168.5,121.3h6.2v24.6h-6.2V121.3z"/>
		<path class="st11" d="M180.8,127.4h6.1v18.5h-6.1V127.4z"/>
		<path class="st10" d="M193.1,115.1h6.2v30.8h-6.2V115.1z"/>
		<path class="st11" d="M205.5,124.3h6.2v21.5h-6.2V124.3z"/>
	</g>
	<g>
		<g>
			<g>
				<path class="st15" d="M574.6,135c0,0.1,0,0.2-0.2,0.3l-1.5,0.7c0.2,0.7,0.4,1.5,0.5,2.2l1.6,0.1c0.1,0,0.1,0,0.2,0
					c0,0,0.1,0.1,0.1,0.2l-0.2,6.2c0,0.1-0.1,0.2-0.3,0.3l-1.6-0.1c-0.1,0.8-0.4,1.5-0.7,2.2l1.4,0.9c0.1,0,0.2,0.2,0,0.3l-3.2,5.2
					c0,0.1-0.2,0.2-0.3,0l-1.4-0.9c-0.5,0.5-1.1,1.1-1.7,1.6l0.7,1.5c0,0,0.1,0.1,0,0.2c0,0.1,0,0.1-0.1,0.2l-5.5,2.9
					c-0.1,0.1-0.3,0-0.3-0.1l-0.7-1.5c-0.7,0.2-1.5,0.4-2.2,0.5l-0.1,1.6c0,0.1-0.1,0.2-0.3,0.3l-6.2-0.2c-0.1,0-0.1,0-0.2,0
					s-0.1-0.1-0.1-0.2l0.1-1.6c-0.8-0.1-1.5-0.4-2.2-0.7l-0.9,1.4c0,0.1-0.1,0.1-0.1,0.1c-0.1,0-0.1,0-0.2,0l-5.2-3.2
					c-0.1,0-0.2-0.2,0-0.3l0.9-1.4c-0.5-0.5-1.1-1.1-1.6-1.7l-1.5,0.7c0,0-0.1,0.1-0.2,0c-0.1,0-0.1,0-0.2-0.1l-2.9-5.5
					c0,0-0.1-0.1,0-0.2c0-0.1,0-0.1,0.1-0.2l1.5-0.7c-0.2-0.7-0.4-1.5-0.5-2.2l-1.6-0.1c-0.1,0-0.1,0-0.2,0s-0.1-0.1-0.1-0.2
					l0.2-6.2c0-0.1,0.1-0.2,0.3-0.3l1.6,0.1c0.1-0.8,0.4-1.5,0.7-2.2l-1.4-0.9c-0.1,0-0.1-0.1-0.1-0.1c0-0.1,0-0.1,0-0.2l3.2-5.2
					c0-0.1,0.1-0.1,0.1-0.1c0.1,0,0.1,0,0.2,0l1.4,0.9c0.5-0.5,1.1-1.1,1.7-1.6l-0.7-1.5c-0.1-0.1,0-0.3,0.1-0.3l5.5-2.9
					c0,0,0.1-0.1,0.2,0c0.1,0,0.1,0,0.2,0.1l0.7,1.5c0.7-0.2,1.5-0.4,2.2-0.5l0.1-1.6c0-0.1,0.1-0.2,0.3-0.3l6.2,0.2
					c0.1,0,0.1,0,0.2,0s0.1,0.1,0.1,0.2l-0.1,1.6c0.8,0.1,1.5,0.4,2.2,0.7l0.9-1.4c0-0.1,0.2-0.2,0.3,0l5.2,3.2
					c0.1,0,0.1,0.1,0.1,0.1c0,0.1,0,0.1,0,0.2l-0.9,1.4c0.5,0.5,1.1,1.1,1.6,1.7l1.5-0.7c0,0,0.1-0.1,0.2,0c0.1,0,0.1,0,0.2,0.1
					L574.6,135L574.6,135z M572.5,135.9c0-0.1,0-0.2,0.2-0.3l1.5-0.7l-2.6-5.1l-1.5,0.7c-0.1,0.1-0.2,0.1-0.3-0.1
					c-0.6-0.7-1.2-1.3-1.8-2c-0.1-0.1-0.1-0.2,0-0.3l0.9-1.4l-4.9-2.9l-0.9,1.4c0,0.1-0.2,0.2-0.3,0c-0.8-0.4-1.6-0.6-2.5-0.8
					c-0.1,0-0.2-0.1-0.2-0.2l0.1-1.6l-5.8-0.1l-0.1,1.6c0,0.1-0.1,0.2-0.3,0.3c-0.8,0.2-1.8,0.3-2.5,0.5c-0.1,0.1-0.2,0-0.3-0.2
					l-0.7-1.5l-5.1,2.6l0.7,1.5c0.1,0.1,0.1,0.2-0.1,0.3c-0.7,0.6-1.3,1.2-2,1.8c-0.1,0.1-0.2,0.1-0.3,0l-1.4-0.9l-2.9,4.9l1.4,0.9
					c0.1,0,0.2,0.2,0,0.3c-0.4,0.8-0.6,1.6-0.8,2.5c0,0.1-0.1,0.2-0.2,0.2l-1.6-0.1l-0.1,5.8l1.6,0.1c0.1,0,0.2,0.1,0.3,0.3
					c0.2,0.8,0.3,1.8,0.5,2.5c0.1,0.1,0,0.2-0.2,0.3l-1.5,0.7l2.6,5.1l1.5-0.7c0.1-0.1,0.2-0.1,0.3,0.1c0.6,0.7,1.2,1.3,1.8,2
					c0.1,0.1,0.1,0.2,0,0.3l-0.9,1.4l4.9,2.9l0.9-1.4c0-0.1,0.2-0.2,0.3,0c0.8,0.4,1.6,0.6,2.5,0.8c0.1,0,0.2,0.1,0.2,0.2l-0.1,1.6
					l5.8,0.1l0.1-1.6c0-0.1,0.1-0.2,0.3-0.3c0.8-0.2,1.8-0.3,2.5-0.5c0.1-0.1,0.2,0,0.3,0.2l0.7,1.5l5.1-2.6l-0.7-1.5
					c-0.1-0.1-0.1-0.2,0.1-0.3c0.7-0.6,1.3-1.2,2-1.8c0.1-0.1,0.2-0.1,0.3,0l1.4,0.9l2.9-4.9l-1.4-0.9c-0.1,0-0.2-0.2,0-0.3
					c0.4-0.8,0.6-1.6,0.8-2.5c0-0.1,0.1-0.2,0.2-0.2l1.6,0.1l0.1-5.8l-1.6-0.1c-0.1,0-0.2-0.1-0.3-0.3
					C573,137.6,572.7,136.8,572.5,135.9L572.5,135.9z M567.2,138.3c0,0.1,0.1,0.1,0.1,0.2c0.7,3.1,0.2,6.1-1.6,8.7
					c-3.2,4.8-9.7,6.3-14.8,3.4c-2.7-1.6-4.6-4-5.3-7.1c-0.8-3.1-0.2-6.1,1.6-8.7c3.2-4.8,9.7-6.3,14.8-3.4
					C564.7,132.9,566.6,135.4,567.2,138.3z M546.1,143.7c0.7,2.8,2.4,5.1,5,6.5c4.8,2.7,11,1.4,14.1-3.3c1.7-2.4,2.1-5.4,1.5-8.4
					c-0.7-2.9-2.4-5.3-5.1-6.7c-4.8-2.7-11-1.4-14.1,3.3c-1.7,2.4-2.1,5.4-1.5,8.4C546.1,143.6,546.1,143.6,546.1,143.7z"/>
			</g>
		</g>
		<g>
			<g>
				<path class="st15" d="M592.2,107.5c0,0.1,0,0.1,0,0.2l-0.9,0.4c0.1,0.4,0.2,1,0.3,1.4l1,0.1h0.1l0.1,0.1l-0.2,3.7
					c0,0.1,0,0.2-0.1,0.2l-1-0.1c-0.1,0.5-0.3,0.9-0.4,1.3l0.8,0.6c0.1,0,0.1,0.1,0.1,0.2l-2,3.2c0,0.1-0.1,0.1-0.2,0.1l-0.8-0.6
					c-0.4,0.3-0.6,0.7-1.1,0.9l0.4,0.9v0.1c0,0,0,0.1-0.1,0.1l-3.4,1.7c-0.1,0-0.2,0-0.2,0l-0.4-0.9c-0.4,0.1-1,0.2-1.4,0.3l-0.1,1
					c0,0.1,0,0.2-0.1,0.2l-3.7-0.2h-0.1l-0.1-0.1l0.1-1c-0.5-0.1-0.9-0.3-1.3-0.4l-0.6,0.8c0,0,0,0.1-0.1,0.1h-0.1l-3.2-2
					c-0.1,0-0.1-0.1-0.1-0.2l0.6-0.8c-0.3-0.4-0.7-0.6-0.9-1.1l-0.9,0.4h-0.1c0,0-0.1,0-0.1-0.1l-1.7-3.4v-0.1c0,0,0-0.1,0.1-0.1
					l0.9-0.4c-0.1-0.4-0.2-1-0.3-1.4l-1-0.1h-0.1l-0.1-0.1l0.2-3.7c0-0.1,0-0.2,0.1-0.2l1,0.1c0.1-0.5,0.3-0.9,0.4-1.3l-0.8-0.6
					c0,0-0.1,0-0.1-0.1v-0.1l2-3.2c0,0,0-0.1,0.1-0.1h0.1l0.8,0.6c0.4-0.3,0.6-0.7,1.1-0.9l-0.4-0.9c0-0.1,0-0.2,0-0.2l3.4-1.7h0.1
					c0,0,0.1,0,0.1,0.1l0.4,0.9c0.4-0.1,1-0.2,1.4-0.3l0.1-1c0-0.1,0-0.2,0.1-0.2l3.7,0.2h0.1l0.1,0.1l-0.1,1
					c0.5,0.1,0.9,0.3,1.3,0.4l0.6-0.8c0-0.1,0.1-0.1,0.2-0.1l3.2,2c0,0,0.1,0,0.1,0.1v0.1l-0.6,0.8c0.3,0.4,0.7,0.6,0.9,1.1l0.9-0.4
					h0.1c0,0,0.1,0,0.1,0.1L592.2,107.5L592.2,107.5z M591,108.1c0-0.1,0-0.1,0-0.2l0.9-0.4l-1.6-3l-0.9,0.4c-0.1,0-0.1,0-0.2,0
					c-0.3-0.5-0.7-0.8-1.1-1.2c-0.1,0-0.1-0.1-0.1-0.2l0.6-0.8l-2.9-1.9l-0.6,0.8c0,0.1-0.1,0.1-0.2,0.1c-0.5-0.2-1-0.4-1.5-0.5
					c-0.1,0-0.1-0.1-0.1-0.1l0.1-1L580,100l-0.1,1c0,0.1,0,0.1-0.1,0.2c-0.5,0.1-1.1,0.2-1.6,0.3c-0.1,0-0.1,0-0.2,0l-0.3-0.9
					l-3,1.6l0.4,0.9c0,0.1,0,0.1,0,0.2c-0.5,0.3-0.8,0.7-1.2,1.1c0,0.1-0.1,0.1-0.2,0.1l-0.8-0.6l-1.9,2.9l0.8,0.6
					c0.1,0,0.1,0.1,0.1,0.2c-0.2,0.5-0.4,1-0.5,1.5c0,0.1-0.1,0.1-0.1,0.1l-1-0.1l-0.1,3.4l1,0.1c0.1,0,0.1,0,0.2,0.1
					c0.1,0.5,0.2,1.1,0.3,1.6c0,0.1,0,0.1,0,0.2l-0.9,0.4l1.6,3l0.9-0.4c0.1,0,0.1,0,0.2,0c0.3,0.5,0.7,0.8,1.1,1.2
					c0.1,0,0.1,0.1,0.1,0.2l-0.6,0.8l2.9,1.9l0.6-0.8c0-0.1,0.1-0.1,0.2-0.1c0.5,0.2,1,0.4,1.5,0.5c0.1,0,0.1,0.1,0.1,0.1l-0.1,1
					l3.4,0.1l0.1-1c0-0.1,0-0.1,0.1-0.2c0.5-0.1,1.1-0.2,1.6-0.3c0.1,0,0.1,0,0.2,0l0.4,0.9l3-1.6l-0.4-0.9c0-0.1,0-0.1,0-0.2
					c0.5-0.3,0.8-0.7,1.2-1.1c0-0.1,0.1-0.1,0.2-0.1l0.8,0.6l1.9-2.9L591,115c-0.1,0-0.1-0.1-0.1-0.2c0.2-0.5,0.4-1,0.5-1.5
					c0-0.1,0.1-0.1,0.1-0.1l1,0.1l0.1-3.4l-1-0.1c-0.1,0-0.1,0-0.2-0.1C591.3,109.2,591.1,108.6,591,108.1L591,108.1z M587.8,109.5
					C587.8,109.5,587.8,109.6,587.8,109.5c0.5,1.9,0.1,3.8-0.9,5.4c-2,2.9-6,3.9-9,2.1c-1.6-1-2.8-2.5-3.2-4.3c-0.4-1.8,0-3.7,1-5.3
					c2-2.9,6-3.9,9-2.1C586.2,106.3,587.4,107.7,587.8,109.5z M575,112.9c0.4,1.7,1.5,3.1,3,4c2.9,1.8,6.8,0.8,8.6-2
					c1-1.5,1.4-3.3,0.8-5c-0.4-1.8-1.4-3.2-3-4.2c-2.9-1.8-6.8-0.8-8.6,2c-1,1.5-1.4,3.3-0.8,5C574.9,112.8,574.9,112.8,575,112.9z"
					/>
			</g>
		</g>
	</g>
	<g>
		<g>
			<g>
				<rect x="111.1" y="35.3" class="st16" width="96.3" height="61.4"/>
			</g>
		</g>
		<g>
			<g>
				<rect x="111.1" y="35.3" class="st6" width="96.3" height="11.6"/>
			</g>
		</g>
		<g>
			<g>
				<path class="st7" d="M120.3,41.2c0,1.2-0.9,2.1-2.1,2.1c-1.2,0-2.1-0.9-2.1-2.1c0-1.2,0.9-2.1,2.1-2.1S120.3,40.1,120.3,41.2z"
					/>
			</g>
			<g>
				<path class="st7" d="M128.8,41.2c0,1.2-0.9,2.1-2.1,2.1c-1.2,0-2.1-0.9-2.1-2.1c0-1.2,0.9-2.1,2.1-2.1S128.8,40.1,128.8,41.2z"
					/>
			</g>
			<g>
				<path class="st7" d="M137.4,41.2c0,1.2-0.9,2.1-2.1,2.1c-1.2,0-2.1-0.9-2.1-2.1c0-1.2,0.9-2.1,2.1-2.1
					C136.4,39.1,137.4,40.1,137.4,41.2z"/>
			</g>
		</g>
		<g>
			<g>
				<path class="st17" d="M128.6,72.1l19.3-10V65l-16.3,8.2l0,0l16.3,8.2v2.8l-19.3-10V72.1z"/>
				<path class="st17" d="M150.6,85.8l11.6-30.2h2.9l-11.7,30.2H150.6z"/>
				<path class="st17" d="M187.1,74.2l-19.3,9.9v-2.9l16.5-8.2v-0.1l-16.5-8.2v-2.9l19.3,9.9V74.2z"/>
			</g>
		</g>
	</g>
	<g>
		<path class="st8" d="M137.7,353.3l14.1,30.9H206l-35-97.9l-71.3,0.1c-17.9,27.5-23.8,60.9-22.2,97.8h59.2L137.7,353.3z"/>
		<path class="st6" d="M137.7,353.7L137.7,353.7c-0.3,0-0.4-0.2-0.4-0.5l0.2-12.2c0-0.2,0.1-0.3,0.2-0.4l5.6-3.1
			c0.2-0.1,0.5,0,0.6,0.2s0,0.5-0.2,0.6l-5.4,2.8l-0.2,11.9C138.1,353.5,137.9,353.7,137.7,353.7z"/>
		<path class="st10" d="M178.7,268.9c0,0,12.2,33.6,37.6,33.6c18.1,0,27.4-12.2,29.3-29.7c2.1-19-26.8-49.5-62-78
			C183.7,194.7,171.3,241.1,178.7,268.9z"/>
		<g>
			<path class="st10" d="M93.3,266.9c0,0-17.7,45.2-43.7,28.1c-46.4-30.6,2.5-76.4,38-94.3c46.1-23.4,79.5-10.8,95.9-5.9l-3,97.5
				c-0.3,9.2-5.6,38.1-14.8,38.1l-64.6-0.4c-11.5,0-17.7-32.3-14.2-43.3L93.3,266.9z"/>
			<path class="st10" d="M180.9,283.2L180.9,283.2c-0.3,0-0.5-0.2-0.4-0.5l0.4-13.8c0-0.2,0.2-0.4,0.5-0.4c0.2,0,0.4,0.2,0.4,0.5
				l-0.4,13.8C181.4,283,181.2,283.2,180.9,283.2z"/>
		</g>
		<polygon class="st11" points="90.1,198 78.6,340 137.1,338.7 142.4,294.3 144.1,232 123.3,186.3 		"/>
		<polygon class="st7" points="142.7,284.6 83,284.7 83.2,276.7 142.7,276.6 		"/>
		<polygon class="st7" points="111.8,276.9 104.3,278.9 103,193.2 110.6,190.5 		"/>
		<polygon class="st11" points="194.3,198.8 195.6,341.1 145.8,340.1 141,287.1 140.1,232.7 161.3,187.2 		"/>
		<polygon class="st7" points="140.6,284.6 195.2,284.5 195.1,276.7 140.7,276.6 		"/>
		<polygon class="st7" points="171,277.5 178.5,279.6 181.3,194.1 173.7,191.4 		"/>
		<g>
			<path class="st18" d="M60.1,249c0,0,31.7-13.3,48.6-19.8c29.4-11.4,46.3-8.2,46.3-4c0,4.5-8.8,2-13,3.3c0.6,0.3,2.5,1.7,2.5,4
				c0.1,3.4-2.3,4.4-2.5,4.6c0.2,0.1,2.8,1.2,3.3,3.4c0.5,2.5-0.5,4.4-2.1,5.6c0.6,0.2,2.6,1.5,3.1,3.6c0.4,2.2-0.7,4.9-2.8,5.5
				c-3.8,1.3-15.3,4.9-20.7,7.3c-10.6,4.9-46,27.5-63,30.2c-12.8,0.5-18.7-17.3-13.4-31.3C50,252.4,60.1,249,60.1,249z"/>
			<g>
				<path class="st12" d="M138.8,254.8c-0.2,0-0.4-0.2-0.4-0.4l-0.6-3.6c0-0.2,0.1-0.5,0.4-0.5c0.2,0,0.5,0.1,0.5,0.4l0.6,3.6
					C139.3,254.4,139.1,254.6,138.8,254.8L138.8,254.8z"/>
				<path class="st12" d="M137.2,246.1c-0.2,0-0.4-0.2-0.4-0.4l-0.5-4.1c0-0.2,0.1-0.5,0.4-0.5c0.2,0,0.5,0.1,0.5,0.4l0.5,4.1
					C137.8,245.8,137.6,246,137.2,246.1L137.2,246.1z"/>
				<path class="st12" d="M136.2,236.9c-0.2,0-0.4-0.2-0.4-0.4c-0.1-0.6-0.2-1.3-0.3-1.9c-0.1-0.6-0.2-1.2-0.3-1.9
					c0-0.2,0.1-0.5,0.4-0.5c0.2,0,0.5,0.1,0.5,0.4c0.1,0.6,0.2,1.3,0.3,1.9s0.2,1.2,0.3,1.9C136.7,236.6,136.5,236.8,136.2,236.9
					L136.2,236.9z"/>
				<path class="st12" d="M134.6,229.4c-0.2,0-0.4-0.1-0.4-0.3l-0.8-3.5c-0.1-0.2,0.1-0.5,0.3-0.5c0.2-0.1,0.5,0.1,0.5,0.3l0.8,3.5
					C135.1,229.1,134.9,229.4,134.6,229.4L134.6,229.4z"/>
			</g>
			<path class="st8" d="M62.2,244.6c0.9-0.4-15.4,33.3,8.1,45.1c0,0-8,5.7-17.6,3.1C43,289.9,33,257.8,62.2,244.6z"/>
		</g>
		<g>
			<path class="st18" d="M185.7,242.2l14.8,37.2c4,10.1,15.5,14.9,25.5,10.7l0,0c10.9-4.6,15.1-17.7,9-27.8l-20.5-33.8L185.7,242.2z
				"/>
			<path class="st8" d="M199.1,278.2c0,0,29.2,12,35.6-21l5.4,12.9c0,0,4.2,15.6-10.9,22.5C214.1,299.6,203.9,289.6,199.1,278.2z"/>
			<g>
				<g>
					<path class="st6" d="M151.5,257.7L151.5,257.7c-0.3-0.1-0.5-0.3-0.4-0.6l20.2-56.6c0.1-0.2,0.2-0.3,0.4-0.3l44.2,0.4
						c0.2,0,0.4,0.2,0.4,0.4s-0.2,0.4-0.4,0.4l-43.8-0.4l-20,56.2C151.8,257.6,151.7,257.7,151.5,257.7z"/>
				</g>
				<g>
					<polygon class="st6" points="199,261.1 154.8,261.1 174.9,204.5 219.1,204.5 					"/>
				</g>
			</g>
			<g>
				<path class="st18" d="M204.8,241.1c3.9,2.2,4.3,4.9,3.2,7c-1.3,2.2-3.7,3.1-7.6,0.8c-3.9-2.2-7.7-6.8-6.5-8.9
					C195,238,200.9,238.9,204.8,241.1z"/>
				<path class="st18" d="M208.2,233.1c4.5,2.5,5.1,5.6,3.6,8.1s-4.3,3.6-8.9,1.1c-4.5-2.5-9-7.8-7.5-10.3
					C197,229.4,203.7,230.6,208.2,233.1z"/>
				<path class="st18" d="M211.9,228.6c3.9,2.2,6.3,1.3,7.6-0.8c1.3-2.2,0.7-4.7-3.2-7s-9.7-3.2-11-1.1
					C204.2,221.8,208,226.4,211.9,228.6z"/>
				<path class="st18" d="M206.9,235.5c4.5,2.5,7.4,1.5,8.9-1.1s0.8-5.5-3.6-8.1c-4.5-2.5-11.3-3.7-12.8-1.3
					C197.9,227.7,202.3,233,206.9,235.5z"/>
				<path class="st12" d="M204.3,250.7c-0.2,0-0.3,0-0.5,0s-0.4-0.2-0.4-0.5c0-0.2,0.2-0.4,0.5-0.4c1.6,0.1,2.8-0.5,3.6-1.9
					s0.7-2.6-0.1-3.9c-0.1-0.1-0.1-0.3,0-0.5c0.1-0.1,0.2-0.2,0.4-0.2c1.6,0,2.8-0.7,3.6-2.2c0.7-1.3,0.8-2.5,0.3-3.8
					c-0.1-0.1,0-0.3,0-0.4c0.1-0.1,0.2-0.2,0.3-0.2c1.4-0.2,2.4-0.9,3.2-2.2c0.1-0.2,0.4-0.3,0.6-0.2s0.3,0.4,0.2,0.6
					c-0.7,1.4-1.9,2.2-3.3,2.5c0.4,1.4,0.2,2.7-0.5,4.1c-0.8,1.5-2.1,2.4-3.7,2.6c0.6,1.4,0.5,2.8-0.2,4.2
					C207.4,249.9,206,250.7,204.3,250.7z"/>
			</g>
		</g>
		<g>
			<path class="st18" d="M152.3,190.6c2.4,8.9-9.4,26.3-9.4,26.3s-14.7-16.7-14.7-26.5c0-2.5,2.5-4,10.9-4
				C147.6,186.3,151.7,188.2,152.3,190.6z"/>
			<g>
				
					<ellipse transform="matrix(9.854764e-02 -0.9951 0.9951 9.854764e-02 -24.6768 278.7836)" class="st19" cx="141.5" cy="153" rx="21.3" ry="21.3"/>
				<path class="st18" d="M156.3,163.5L156.3,163.5c-2.7-1.5-7.3-5.5-8.9-2.7l-17.5,28c-1.5,2.7,7.5,1.8,10.1,3.3l0,0
					c2.7,1.5,6.1,0.5,7.6-2.2l10.8-18.7C160,168.3,159,165,156.3,163.5z"/>
				<path class="st18" d="M170.5,171.2c-2.4,4.5-16.6,2.5-16.6,2.5l-12.3-9.6c-3.3-6.4-0.6-14.4,5.9-17.5c6.4-3.3,14.4-0.6,17.5,5.9
					C164.9,152.4,172.9,166.5,170.5,171.2z"/>
				<path class="st18" d="M165.1,156.2c0,0,5,1.8,5.3,2.8c0.3,1.2-3,3.7-3,3.7S165.2,156.2,165.1,156.2z"/>
				<g>
					<path class="st7" d="M154.2,160.9c0,0,1.5-2,3.8-3.2c0.5-0.2,1.6,4.2,0.9,4.2C156.4,162,154.2,160.9,154.2,160.9z"/>
					<g>
						<g>
							<g>
								<g>
									<defs>
										<path id="SVGID_1_" d="M154.2,160.9c0,0,2.1-3,5.4-3.8c3.3-0.8,6.5,0.8,6.5,0.8s-2.1,3-5.4,3.8
											C157.5,162.6,154.2,160.9,154.2,160.9z"/>
									</defs>
									<clipPath id="SVGID_2_">
										<use xlink:href="#SVGID_1_"  style="overflow:visible;"/>
									</clipPath>
									<path class="st20" d="M158.1,157.6c0.7-2.3,3.3-3.6,5.7-2.8c2.3,0.7,3.6,3.3,2.8,5.7c-0.7,2.3-3.3,3.6-5.7,2.8
										C158.5,162.4,157.3,159.9,158.1,157.6z"/>
								</g>
							</g>
						</g>
					</g>
				</g>
				<path class="st12" d="M164.7,166.8c-0.1,0-0.2,0-0.2,0c-0.8-0.1-1.6-0.7-1.9-1.5c-0.1-0.2,0-0.5,0.3-0.6c0.2-0.1,0.5,0,0.6,0.3
					c0.2,0.5,0.6,0.8,1.2,0.9c0.5,0.1,1.1-0.2,1.4-0.6c0.1-0.2,0.4-0.3,0.6-0.2c0.2,0.1,0.3,0.4,0.2,0.6
					C166.1,166.3,165.4,166.8,164.7,166.8z"/>
				<path class="st19" d="M132.2,166.5c0,0,18.4,0.8,30-17.6s-20.3-17.3-33.6-11.1C120.1,141.9,132.2,166.5,132.2,166.5z"/>
				<path class="st21" d="M136.7,181.4c-0.6,0-0.9-0.1-1.1-0.1c-0.2,0-0.4-0.3-0.4-0.5s0.3-0.4,0.5-0.4c0,0,3,0.4,5.1-1.4
					c1.6-1.3,2.4-3.4,2.6-6.1c0.2-4.2-2.7-6.5-4.9-8.2c-1.4-1.1-2.3-1.8-2.1-2.7c0.2-0.8,1.4-1.5,4.1-2.2
					c10-2.6,15.8-14.5,15.8-14.6c0.1-0.2,0.4-0.3,0.6-0.2c0.2,0.1,0.3,0.4,0.2,0.6c-0.2,0.5-6,12.2-16.5,15.1
					c-2.8,0.7-3.4,1.3-3.5,1.5c-0.1,0.3,0.8,1.2,1.8,1.8c2.2,1.7,5.5,4.3,5.3,9.1c-0.2,3.1-1.2,5.4-3,6.9
					C139.9,181.2,137.9,181.4,136.7,181.4z"/>
				<path class="st19" d="M107.5,91.4c0,0-18.3,40.2,24.3,58.8c0,0-19-33.1,12.9-60.1L107.5,91.4z"/>
				<g>
					<path class="st6" d="M164.7,177.3c-0.7,0-1.5-0.1-2.2-0.2c-11.6-1.8-21.4-16.1-21.8-16.8c-0.1-0.2-0.1-0.5,0.1-0.6
						c0.2-0.1,0.5-0.1,0.6,0.1c0.1,0.1,10,14.7,21.2,16.4c3.8,0.6,7.4-0.4,10.7-3c0.2-0.2,0.5-0.1,0.6,0.1c0.2,0.2,0.1,0.5-0.1,0.6
						C171,176.1,167.9,177.3,164.7,177.3z"/>
					<path class="st6" d="M176.5,171.8c-0.5-1.5-2.1-2.3-3.6-1.9c-1.5,0.5-2.3,2.1-1.9,3.6c0.5,1.5,2.1,2.3,3.6,1.9
						S177,173.4,176.5,171.8z"/>
				</g>
				
					<ellipse transform="matrix(0.9696 -0.2448 0.2448 0.9696 -34.9508 39.1701)" class="st5" cx="140.1" cy="160.2" rx="10" ry="11.8"/>
				<path class="st5" d="M137.3,157.2c-0.2,0-0.4-0.2-0.4-0.4v-10.7c0-9.3,5.3-14.7,10.6-15.9c4.1-0.9,7.8,0.6,9.5,4.1
					c0.1,0.2,0,0.5-0.2,0.6s-0.5,0-0.6-0.2c-1.5-3.1-4.7-4.4-8.4-3.6c-5,1.2-9.8,6.2-9.8,15v10.7
					C137.8,156.9,137.6,157.2,137.3,157.2z"/>
				<path class="st6" d="M138.7,167.8L138.7,167.8c-2.5-0.8-4.5-3.1-5.3-5.9c-1.1-4.2,1.1-8.4,4.6-9.4c2-0.5,4.2,0.1,5.9,1.7
					c0.2,0.2,0.2,0.4,0,0.6c-0.2,0.2-0.4,0.2-0.6,0c-1.5-1.4-3.4-1.9-5.1-1.5c-3.2,0.7-5,4.5-4,8.2c0.6,2.5,2.4,4.5,4.5,5.3
					c0.2,0.1,0.4,0.3,0.3,0.6C139.1,167.7,138.9,167.8,138.7,167.8z"/>
			</g>
		</g>
	</g>
</g>
<g class="st0">
	<path class="st1" d="M249.6,201h61.5v7.2h-61.5V201z"/>
	<path class="st1" d="M249.6,215.5h61.5v7.3h-61.5V215.5z"/>
	<path class="st1" d="M275,186.5h36.2v7.2H275V186.5z"/>
	<path class="st1" d="M260.5,182.5h7.2v7.3h-7.2V182.5z"/>
</g>
</svg>
